!!index array str
 "ORN"
!entry.ORN.unit.atoms table  str name  str type  int typex  int resx  int flags  int seq  int elmnt  dbl chg
 "N" "N" 0 1 131072 1 7 -0.324695
 "H" "H" 0 1 131072 2 1 0.235456
 "CA" "CT" 0 1 131072 3 6 0.046216
 "HA" "H1" 0 1 131072 4 1 0.080166
 "CB" "CT" 0 1 131072 5 6 -0.147878
 "HB2" "HC" 0 1 131072 6 1 0.070824
 "HB3" "HC" 0 1 131072 7 1 0.070824
 "CG" "CT" 0 1 131072 8 6 -0.030823
 "HG2" "HC" 0 1 131072 9 1 0.051077
 "HG3" "HC" 0 1 131072 10 1 0.051077
 "CD" "CT" 0 1 131072 11 6 0.038472
 "HD2" "HP" 0 1 131072 12 1 0.096190
 "HD3" "HP" 0 1 131072 13 1 0.096190
 "NE" "N3" 0 1 131072 14 7 -0.315177
 "HE1" "H" 0 1 131072 15 1 0.313235
 "HE2" "H" 0 1 131072 16 1 0.313235
 "HE3" "H" 0 1 131072 17 1 0.313235
 "C" "C" 0 1 131072 18 6 0.598531
 "O" "O" 0 1 131072 19 8 -0.556155
!entry.ORN.unit.atomspertinfo table  str pname  str ptype  int ptypex  int pelmnt  dbl pchg
 "N" "N" 0 -1 0.0
 "H" "H" 0 -1 0.0
 "CA" "CT" 0 -1 0.0
 "HA" "H1" 0 -1 0.0
 "CB" "CT" 0 -1 0.0
 "HB2" "HC" 0 -1 0.0
 "HB3" "HC" 0 -1 0.0
 "CG" "CT" 0 -1 0.0
 "HG2" "HC" 0 -1 0.0
 "HG3" "HC" 0 -1 0.0
 "CD" "CT" 0 -1 0.0
 "HD2" "HP" 0 -1 0.0
 "HD3" "HP" 0 -1 0.0
 "NE" "N3" 0 -1 0.0
 "HE1" "H" 0 -1 0.0
 "HE2" "H" 0 -1 0.0
 "HE3" "H" 0 -1 0.0
 "C" "C" 0 -1 0.0
 "O" "O" 0 -1 0.0
!entry.ORN.unit.boundbox array dbl
 -1.000000
 0.0
 0.0
 0.0
 0.0
!entry.ORN.unit.childsequence single int
 2
!entry.ORN.unit.connect array int
 1
 18
!entry.ORN.unit.connectivity table  int atom1x  int atom2x  int flags
 1 2 1
 1 3 1
 3 4 1
 3 5 1
 3 18 1
 5 6 1
 5 7 1
 5 8 1
 8 9 1
 8 10 1
 8 11 1
 11 12 1
 11 13 1
 11 14 1
 14 15 1
 14 16 1
 14 17 1
 18 19 1
!entry.ORN.unit.hierarchy table  str abovetype  int abovex  str belowtype  int belowx
 "U" 0 "R" 1
 "R" 1 "A" 1
 "R" 1 "A" 2
 "R" 1 "A" 3
 "R" 1 "A" 4
 "R" 1 "A" 5
 "R" 1 "A" 6
 "R" 1 "A" 7
 "R" 1 "A" 8
 "R" 1 "A" 9
 "R" 1 "A" 10
 "R" 1 "A" 11
 "R" 1 "A" 12
 "R" 1 "A" 13
 "R" 1 "A" 14
 "R" 1 "A" 15
 "R" 1 "A" 16
 "R" 1 "A" 17
 "R" 1 "A" 18
 "R" 1 "A" 19
!entry.ORN.unit.name single str
 "ORN"
!entry.ORN.unit.positions table  dbl x  dbl y  dbl z
 -1.615770 -0.649700 -0.309740
 -2.020947 -0.359567 -1.173014
 -0.403815 0.004096 0.135045
 -0.334971 -0.190870 1.198716
 0.856832 -0.554051 -0.544825
 0.734207 -1.626303 -0.637412
 0.942962 -0.135613 -1.542021
 2.129897 -0.262628 0.257295
 2.187441 0.799426 0.455408
 2.082847 -0.790509 1.207141
 3.367318 -0.703472 -0.508141
 3.412166 -1.771603 -0.664469
 3.462280 -0.197443 -1.457620
 4.611795 -0.338958 0.283438
 4.615784 -0.790729 1.187722
 4.653934 0.658117 0.446702
 5.461321 -0.606358 -0.194670
 -0.500023 1.526045 -0.027516
 0.478783 2.173873 -0.307025
!entry.ORN.unit.residueconnect table  int c1x  int c2x  int c3x  int c4x  int c5x  int c6x
 1 18 0 0 0 0
!entry.ORN.unit.residues table  str name  int seq  int childseq  int startatomx  str restype  int imagingx
 "ORN" 1 20 1 "p" 0
!entry.ORN.unit.residuesPdbSequenceNumber array int
 0
!entry.ORN.unit.solventcap array dbl
 -1.000000
 0.0
 0.0
 0.0
 0.0
!entry.ORN.unit.velocities table  dbl x  dbl y  dbl z
 0.0 0.0 0.0
 0.0 0.0 0.0
 0.0 0.0 0.0
 0.0 0.0 0.0
 0.0 0.0 0.0
 0.0 0.0 0.0
 0.0 0.0 0.0
 0.0 0.0 0.0
 0.0 0.0 0.0
 0.0 0.0 0.0
 0.0 0.0 0.0
 0.0 0.0 0.0
 0.0 0.0 0.0
 0.0 0.0 0.0
 0.0 0.0 0.0
 0.0 0.0 0.0
 0.0 0.0 0.0
 0.0 0.0 0.0
 0.0 0.0 0.0




